<?xml version="1.0" encoding="utf-8"?>
<!-- Generator: Adobe Illustrator 16.0.0, SVG Export Plug-In . SVG Version: 6.00 Build 0)  -->
<!DOCTYPE svg PUBLIC "-//W3C//DTD SVG 1.1//EN" "http://www.w3.org/Graphics/SVG/1.1/DTD/svg11.dtd">
<svg version="1.1" id="Layer_1" xmlns="http://www.w3.org/2000/svg" xmlns:xlink="http://www.w3.org/1999/xlink" x="0px" y="0px"
	 width="230.5px" height="47px" viewBox="0 0 230.5 47" enable-background="new 0 0 230.5 47" xml:space="preserve">
<g>
	<path d="M63.943,29.457c-0.863,0-1.58,0.098-2.15,0.291c-0.57,0.193-0.855,0.596-0.855,1.203c0,0.498,0.193,0.855,0.581,1.071
		c0.387,0.216,0.918,0.323,1.594,0.323c0.93,0,1.729-0.135,2.399-0.406c0.669-0.271,1.131-0.512,1.386-0.723v-1.561
		c-0.255-0.043-0.675-0.088-1.262-0.133C65.049,29.48,64.485,29.457,63.943,29.457z"/>
	<path d="M146.154,23.298c-1.152,0-2.034,0.324-2.648,0.971s-0.922,1.729-0.922,3.246c0,1.516,0.308,2.598,0.922,3.245
		s1.496,0.972,2.648,0.972c1.162,0,2.047-0.324,2.656-0.972c0.607-0.647,0.912-1.729,0.912-3.245c0-1.517-0.305-2.599-0.912-3.246
		C148.201,23.622,147.316,23.298,146.154,23.298z"/>
	<path d="M125.352,23.365c-1.162,0-1.986,0.371-2.473,1.112c-0.488,0.742-0.73,1.755-0.73,3.039c0,1.295,0.242,2.311,0.73,3.046
		c0.486,0.736,1.311,1.104,2.473,1.104c0.697,0,1.301-0.119,1.811-0.357c0.508-0.238,0.912-0.49,1.211-0.756v-6.059
		c-0.299-0.277-0.703-0.534-1.211-0.772C126.652,23.484,126.049,23.365,125.352,23.365z"/>
	<path d="M168.707,23.556c-0.658-0.349-1.375-0.523-2.15-0.523c-0.764,0-1.475,0.174-2.133,0.523s-1.115,1.011-1.369,1.983h7.006
		C169.816,24.566,169.365,23.904,168.707,23.556z"/>
	<path d="M0,0v47h230.5V0H0z M31.055,35.135h-5.313l-2.009-7.752l-1.992,7.752h-5.313l-2.175-19.689h4.582l0.681,9.148l0.282,6.125
		l2.208-9.147h3.603l2.175,9.114l0.315-6.092l0.681-9.148h4.449L31.055,35.135z M51.276,35.135h-4.549v-8.6
		c0-1.084-0.164-1.878-0.49-2.382c-0.327-0.503-0.955-0.755-1.884-0.755c-0.753,0-1.361,0.133-1.826,0.398
		c-0.465,0.266-0.786,0.499-0.963,0.698v10.641h-4.565V12.839h4.565v8.766c0.155-0.21,0.351-0.426,0.589-0.647
		c0.238-0.221,0.54-0.434,0.905-0.639c0.365-0.205,0.791-0.376,1.278-0.515c0.487-0.138,1.057-0.208,1.71-0.208
		c0.708,0,1.378,0.097,2.009,0.291c0.631,0.194,1.184,0.529,1.66,1.004c0.476,0.476,0.855,1.104,1.137,1.884
		s0.423,1.763,0.423,2.947V35.135z M73.422,34.801c-0.343,0.178-0.808,0.333-1.395,0.467c-0.587,0.133-1.179,0.199-1.776,0.199
		c-1.019,0-1.713-0.207-2.083-0.622c-0.371-0.415-0.556-0.933-0.556-1.552v-0.299c-0.21,0.254-0.473,0.522-0.789,0.805
		s-0.7,0.548-1.154,0.797c-0.454,0.249-0.994,0.457-1.619,0.623c-0.625,0.166-1.342,0.248-2.15,0.248
		c-0.753,0-1.464-0.082-2.133-0.248c-0.67-0.166-1.253-0.426-1.751-0.781c-0.498-0.354-0.894-0.807-1.187-1.361
		c-0.293-0.553-0.44-1.217-0.44-1.992c0-0.863,0.18-1.582,0.54-2.158c0.359-0.574,0.847-1.031,1.461-1.369s1.312-0.575,2.092-0.714
		c0.78-0.138,1.58-0.208,2.399-0.208c0.863,0,1.652,0.051,2.366,0.15s1.264,0.21,1.652,0.332v-1.162c0-0.41-0.036-0.789-0.108-1.138
		c-0.072-0.349-0.202-0.647-0.39-0.896c-0.188-0.249-0.471-0.448-0.847-0.598c-0.376-0.149-0.869-0.224-1.478-0.224
		c-0.863,0-1.566,0.164-2.108,0.49c-0.542,0.327-0.813,0.888-0.813,1.685h-4.25c0-0.996,0.185-1.851,0.556-2.564
		c0.371-0.714,0.891-1.303,1.561-1.768c0.669-0.465,1.458-0.805,2.366-1.021c0.907-0.216,1.893-0.324,2.955-0.324
		c0.974,0,1.893,0.097,2.756,0.29c0.863,0.194,1.613,0.522,2.25,0.987c0.636,0.464,1.14,1.08,1.511,1.849
		c0.371,0.768,0.556,1.722,0.556,2.86v5.67c0,0.52,0.271,0.779,0.813,0.779c0.188,0,0.401-0.02,0.639-0.059
		c0.238-0.039,0.423-0.08,0.556-0.125V34.801z M92.946,23.381h-7.521v4.855c0,1.226,0.177,2.109,0.531,2.65
		c0.354,0.541,1.096,0.813,2.225,0.813c0.797,0,1.541-0.098,2.233-0.291c0.691-0.193,1.297-0.391,1.818-0.59v3.57
		c-0.576,0.243-1.298,0.484-2.167,0.722c-0.869,0.237-1.884,0.356-3.046,0.356c-0.996,0-1.879-0.118-2.648-0.355
		c-0.77-0.238-1.414-0.633-1.934-1.186c-0.521-0.553-0.911-1.276-1.17-2.172c-0.26-0.896-0.39-2.012-0.39-3.35v-5.023h-4.731v-3.437
		h4.731v-7.105h4.549v7.105h7.521V23.381z M114.81,39.086H95.901v-3.951h18.909V39.086z M132.939,35.135h-4.051v-2.041
		c-0.389,0.542-1.008,1.073-1.859,1.594c-0.854,0.52-1.921,0.779-3.205,0.779c-0.885,0-1.721-0.157-2.506-0.473
		c-0.787-0.315-1.467-0.797-2.043-1.444c-0.575-0.647-1.026-1.47-1.353-2.466c-0.327-0.996-0.489-2.174-0.489-3.535
		c0-1.428,0.174-2.641,0.522-3.636c0.349-0.996,0.824-1.818,1.428-2.465c0.603-0.647,1.289-1.118,2.059-1.411
		c0.769-0.293,1.563-0.44,2.382-0.44c0.609,0,1.162,0.075,1.66,0.224s0.941,0.327,1.328,0.531c0.388,0.205,0.711,0.421,0.972,0.647
		c0.26,0.227,0.456,0.418,0.589,0.573v-8.732h4.566V35.135z M153.707,31.342c-0.498,1.035-1.148,1.857-1.95,2.465
		c-0.803,0.609-1.704,1.038-2.706,1.287s-2,0.373-2.996,0.373s-1.982-0.124-2.955-0.373c-0.975-0.249-1.852-0.678-2.632-1.287
		c-0.78-0.607-1.409-1.416-1.884-2.424c-0.477-1.006-0.715-2.273-0.715-3.801c0-1.561,0.25-2.85,0.748-3.869
		c0.498-1.018,1.147-1.834,1.95-2.449c0.802-0.614,1.702-1.046,2.698-1.295s1.997-0.374,3.004-0.374
		c0.996,0,1.986,0.125,2.973,0.374c0.984,0.249,1.861,0.675,2.631,1.278c0.77,0.604,1.392,1.409,1.867,2.416
		c0.477,1.007,0.715,2.269,0.715,3.786C154.455,29.01,154.205,30.307,153.707,31.342z M174.758,28.295h-11.77
		c0,1.092,0.29,1.986,0.871,2.687s1.574,1.05,2.98,1.05c0.863,0,1.576-0.143,2.141-0.428s0.902-0.695,1.014-1.232h4.697
		c-0.21,0.951-0.564,1.751-1.063,2.398s-1.104,1.176-1.817,1.586c-0.714,0.409-1.5,0.697-2.357,0.863s-1.74,0.248-2.647,0.248
		c-1.185,0-2.291-0.141-3.32-0.423s-1.924-0.733-2.682-1.353c-0.758-0.62-1.354-1.431-1.785-2.433
		c-0.432-1.001-0.646-2.216-0.646-3.644c0-1.517,0.243-2.789,0.73-3.819c0.486-1.029,1.12-1.856,1.9-2.482
		c0.78-0.625,1.668-1.068,2.664-1.328c0.996-0.26,2.01-0.39,3.039-0.39c1.04,0,2.047,0.136,3.021,0.407
		c0.974,0.271,1.834,0.72,2.581,1.345c0.747,0.625,1.342,1.442,1.784,2.449c0.443,1.007,0.664,2.247,0.664,3.719V28.295z
		 M194.481,32.853c-0.454,0.637-1.06,1.153-1.817,1.552c-0.759,0.398-1.646,0.676-2.665,0.83c-1.019,0.155-2.098,0.232-3.237,0.232
		c-1.085,0-2.108-0.082-3.071-0.248s-1.802-0.449-2.515-0.848c-0.715-0.398-1.287-0.921-1.719-1.568s-0.658-1.458-0.681-2.432h4.648
		c0.077,0.73,0.454,1.226,1.129,1.485c0.675,0.261,1.527,0.39,2.557,0.39c0.874,0,1.646-0.096,2.315-0.29
		c0.67-0.193,1.005-0.562,1.005-1.104c0-0.32-0.13-0.569-0.39-0.746c-0.261-0.178-0.623-0.33-1.088-0.457s-1.013-0.234-1.644-0.324
		c-0.631-0.088-1.322-0.193-2.075-0.314c-0.73-0.111-1.464-0.258-2.199-0.44c-0.736-0.183-1.397-0.442-1.984-0.78
		s-1.063-0.771-1.428-1.303s-0.548-1.229-0.548-2.092c0-0.841,0.193-1.561,0.581-2.159s0.922-1.096,1.602-1.494
		c0.682-0.398,1.497-0.689,2.449-0.872s1.992-0.274,3.121-0.274c0.996,0,1.932,0.075,2.806,0.224s1.646,0.41,2.315,0.78
		c0.67,0.371,1.21,0.869,1.619,1.494c0.409,0.625,0.647,1.403,0.714,2.333h-4.665c-0.11-0.665-0.484-1.096-1.121-1.295
		c-0.636-0.199-1.325-0.299-2.066-0.299c-0.797,0-1.438,0.089-1.926,0.266c-0.487,0.177-0.73,0.493-0.73,0.946
		c0,0.555,0.424,0.925,1.27,1.113c0.848,0.188,2.167,0.398,3.96,0.631c0.753,0.11,1.497,0.252,2.233,0.423
		c0.735,0.172,1.392,0.427,1.967,0.764c0.575,0.338,1.046,0.792,1.411,1.361c0.365,0.57,0.548,1.281,0.548,2.134
		C195.162,31.422,194.936,32.217,194.481,32.853z M216.826,39.086h-18.909v-3.951h18.909V39.086z"/>
</g>
</svg>
