<?xml version="1.0" encoding="utf-8"?>
<!-- Generator: Adobe Illustrator 17.1.0, SVG Export Plug-In . SVG Version: 6.00 Build 0)  -->
<!DOCTYPE svg PUBLIC "-//W3C//DTD SVG 1.1//EN" "http://www.w3.org/Graphics/SVG/1.1/DTD/svg11.dtd">
<svg version="1.1" id="Layer_1" xmlns="http://www.w3.org/2000/svg" xmlns:xlink="http://www.w3.org/1999/xlink" x="0px" y="0px"
	 viewBox="0 0 113.4 56.7" enable-background="new 0 0 113.4 56.7" xml:space="preserve">
<path d="M109.3,42.9v-3h-1.4v-3.4l-1.3-1.5l-1.3,1.5v3.4h-5.3v-1.6l-1.3-1.5l-1.3,1.5v1.6h-6.8v-1.6l-1.3-1.5l-1.3,1.5v1.6h-3.9
	V24.4h-1.8L55.8,11.5L28.9,24.4h-1.8v14.2l-1.3-1.5l-1.3,1.5v1.6h-7.3v-1.6L16,37.1l-1.3,1.5v1.6h-7v-3.6L6.5,35l-1.3,1.5v3.6H4.1v3
	h1.2v3.1H4.1v3h1.2v2.4h2.5v-2.4h7v2.4h2.5v-2.4h7.3v2.4h2.5h35.4v-15c0-3.6,2.9-6.6,6.6-6.6s6.6,2.9,6.6,6.6v15h8.7V49h3.9v2.4h2.5
	V49h6.8v2.4h2.5V49h5.3v2.6h2.5V49h1.4v-3h-1.4v-3.1H109.3z M14.8,46.2h-7v-3.1h7V46.2z M24.6,46.2h-7.3v-3.1h7.3V46.2z M88.2,46
	h-3.9v-3.1h3.9V46z M97.6,46h-6.8v-3.1h6.8V46z M105.4,46h-5.3v-3.1h5.3V46z"/>
</svg>
