<?xml version="1.0" encoding="utf-8"?>
<!-- Generator: Adobe Illustrator 17.1.0, SVG Export Plug-In . SVG Version: 6.00 Build 0)  -->
<!DOCTYPE svg PUBLIC "-//W3C//DTD SVG 1.1//EN" "http://www.w3.org/Graphics/SVG/1.1/DTD/svg11.dtd">
<svg version="1.1" id="Layer_1" xmlns="http://www.w3.org/2000/svg" xmlns:xlink="http://www.w3.org/1999/xlink" x="0px" y="0px"
	 viewBox="0 0 56.7 56.7" enable-background="new 0 0 56.7 56.7" xml:space="preserve">
<path d="M14.9,4.1v48.5H34V41h5.5v11.6h2.4V4.1H14.9z M25.9,7.9h5.2v6h-5.2V7.9z M31.2,16v6h-5.2v-6H31.2z M17.5,7.9h5.2v6h-5.2V7.9
	z M22.8,16v6h-5.2v-6H22.8z M22.7,47h-5.2v-6h5.2V47z M22.8,38.8h-5.2v-6h5.2V38.8z M22.9,30.3h-5.2v-6h5.2V30.3z M31.1,47h-5.2v-6
	h5.2V47z M31.2,38.8h-5.2v-6h5.2V38.8z M31.3,30.3H26v-6h5.2V30.3z M34.2,7.9h5.2v6h-5.2V7.9z M34.2,16h5.2v6h-5.2V16z M39.4,38.8
	h-5.2v-6h5.2V38.8z M39.5,30.3h-5.2v-6h5.2V30.3z"/>
</svg>
