<?xml version="1.0" encoding="utf-8"?>
<!-- Generator: Adobe Illustrator 16.0.0, SVG Export Plug-In . SVG Version: 6.00 Build 0)  -->
<!DOCTYPE svg PUBLIC "-//W3C//DTD SVG 1.1//EN" "http://www.w3.org/Graphics/SVG/1.1/DTD/svg11.dtd">
<svg version="1.1" id="Layer_1" xmlns="http://www.w3.org/2000/svg" xmlns:xlink="http://www.w3.org/1999/xlink" x="0px" y="0px"
	 width="148.5px" height="47px" viewBox="0 0 148.5 47" enable-background="new 0 0 148.5 47" xml:space="preserve">
<g>
	<path d="M0,0v47h148.5V0H0z M30.873,33.936h-4.549v-8.6c0-1.085-0.164-1.879-0.49-2.383c-0.327-0.503-0.955-0.755-1.884-0.755
		c-0.753,0-1.361,0.133-1.826,0.398s-0.786,0.498-0.963,0.697v10.642h-4.565V11.639h4.565v8.766c0.155-0.21,0.351-0.426,0.589-0.647
		c0.238-0.221,0.54-0.434,0.905-0.639c0.365-0.205,0.791-0.376,1.278-0.515c0.487-0.138,1.057-0.208,1.71-0.208
		c0.708,0,1.378,0.097,2.009,0.291c0.631,0.194,1.184,0.529,1.66,1.004c0.476,0.476,0.855,1.104,1.137,1.884
		s0.423,1.763,0.423,2.946V33.936z M51.691,30.142c-0.498,1.035-1.148,1.856-1.951,2.466c-0.803,0.608-1.705,1.037-2.706,1.286
		c-1.002,0.249-2,0.374-2.997,0.374s-1.981-0.125-2.955-0.374c-0.974-0.249-1.851-0.678-2.631-1.286
		c-0.78-0.609-1.409-1.417-1.884-2.424c-0.476-1.008-0.714-2.275-0.714-3.803c0-1.561,0.249-2.849,0.747-3.868
		c0.498-1.018,1.148-1.834,1.951-2.449c0.802-0.614,1.702-1.046,2.698-1.295s1.998-0.374,3.005-0.374
		c0.996,0,1.986,0.125,2.972,0.374c0.985,0.249,1.862,0.675,2.631,1.278c0.769,0.604,1.392,1.409,1.868,2.416
		c0.476,1.007,0.714,2.269,0.714,3.785C52.438,27.809,52.189,29.107,51.691,30.142z M71.679,33.936h-4.034v-2.043
		c-0.388,0.564-0.977,1.102-1.768,1.611c-0.792,0.508-1.834,0.764-3.129,0.764c-0.687,0-1.351-0.095-1.992-0.283
		c-0.642-0.188-1.207-0.52-1.693-0.996c-0.487-0.475-0.886-1.105-1.195-1.893c-0.31-0.785-0.465-1.765-0.465-2.938v-9.414h4.565
		v8.599c0,1.086,0.163,1.877,0.49,2.375c0.326,0.498,0.955,0.746,1.884,0.746c0.608,0,1.14-0.096,1.594-0.29
		c0.454-0.193,0.852-0.456,1.195-0.788V18.745h4.549V33.936z M92.465,31.652c-0.455,0.637-1.061,1.154-1.818,1.553
		S89,33.88,87.982,34.035c-1.02,0.154-2.098,0.232-3.238,0.232c-1.084,0-2.107-0.084-3.07-0.25s-1.802-0.447-2.516-0.846
		s-1.287-0.922-1.719-1.569s-0.658-1.458-0.68-2.433h4.648c0.076,0.73,0.453,1.227,1.129,1.486c0.674,0.26,1.527,0.391,2.557,0.391
		c0.873,0,1.646-0.098,2.315-0.291c0.669-0.193,1.005-0.562,1.005-1.104c0-0.321-0.131-0.57-0.391-0.748
		c-0.26-0.176-0.623-0.328-1.088-0.456c-0.465-0.127-1.012-0.235-1.643-0.323c-0.631-0.089-1.323-0.193-2.076-0.316
		c-0.73-0.109-1.463-0.257-2.199-0.439s-1.397-0.442-1.984-0.78c-0.586-0.337-1.063-0.772-1.428-1.304s-0.547-1.229-0.547-2.091
		c0-0.841,0.193-1.561,0.58-2.158c0.388-0.598,0.922-1.096,1.603-1.494s1.497-0.689,2.448-0.872
		c0.952-0.183,1.992-0.274,3.121-0.274c0.996,0,1.932,0.075,2.807,0.224c0.873,0.149,1.646,0.41,2.315,0.78
		c0.669,0.371,1.209,0.869,1.618,1.494c0.41,0.625,0.648,1.403,0.715,2.333H87.6c-0.11-0.664-0.484-1.096-1.12-1.295
		c-0.637-0.199-1.325-0.299-2.067-0.299c-0.797,0-1.438,0.089-1.926,0.266c-0.486,0.177-0.73,0.493-0.73,0.946
		c0,0.554,0.424,0.924,1.271,1.112c0.847,0.189,2.167,0.398,3.96,0.63c0.752,0.111,1.496,0.252,2.232,0.424s1.392,0.426,1.967,0.764
		c0.576,0.338,1.047,0.791,1.412,1.361s0.547,1.281,0.547,2.133C93.145,30.223,92.918,31.016,92.465,31.652z M113.549,27.096
		h-11.771c0,1.09,0.291,1.986,0.872,2.686s1.574,1.049,2.979,1.049c0.863,0,1.578-0.143,2.143-0.427s0.901-0.696,1.012-1.233h4.699
		c-0.211,0.953-0.564,1.752-1.063,2.399s-1.104,1.177-1.818,1.585c-0.714,0.41-1.5,0.697-2.357,0.863s-1.74,0.25-2.648,0.25
		c-1.184,0-2.291-0.142-3.32-0.424s-1.923-0.732-2.681-1.354c-0.759-0.619-1.353-1.43-1.784-2.432s-0.648-2.217-0.648-3.645
		c0-1.516,0.244-2.789,0.73-3.818c0.487-1.029,1.121-1.856,1.901-2.482c0.78-0.625,1.669-1.068,2.665-1.328
		c0.996-0.26,2.008-0.39,3.037-0.39c1.041,0,2.048,0.136,3.021,0.407c0.975,0.271,1.835,0.72,2.582,1.345
		c0.747,0.625,1.342,1.442,1.785,2.449c0.441,1.007,0.664,2.248,0.664,3.718V27.096z M135.213,37.887h-18.908v-3.951h18.908V37.887z
		"/>
	<path d="M44.137,22.098c-1.151,0-2.034,0.324-2.648,0.971s-0.921,1.729-0.921,3.245c0,1.518,0.307,2.599,0.921,3.246
		s1.497,0.971,2.648,0.971c1.162,0,2.047-0.323,2.656-0.971c0.608-0.647,0.913-1.729,0.913-3.246c0-1.516-0.305-2.598-0.913-3.245
		C46.185,22.422,45.299,22.098,44.137,22.098z"/>
	<path d="M107.497,22.355c-0.659-0.349-1.376-0.523-2.149-0.523c-0.764,0-1.476,0.174-2.134,0.523
		c-0.659,0.349-1.115,1.01-1.37,1.984h7.006C108.606,23.366,108.155,22.704,107.497,22.355z"/>
</g>
</svg>
