<?xml version="1.0" encoding="utf-8"?>
<!-- Generator: Adobe Illustrator 16.0.0, SVG Export Plug-In . SVG Version: 6.00 Build 0)  -->
<!DOCTYPE svg PUBLIC "-//W3C//DTD SVG 1.1//EN" "http://www.w3.org/Graphics/SVG/1.1/DTD/svg11.dtd">
<svg version="1.1" id="Layer_1" xmlns="http://www.w3.org/2000/svg" xmlns:xlink="http://www.w3.org/1999/xlink" x="0px" y="0px"
	 width="268.5px" height="47px" viewBox="0 0 268.5 47" enable-background="new 0 0 268.5 47" xml:space="preserve">
<g>
	<path d="M46.287,21.156c-0.659-0.349-1.375-0.523-2.15-0.523c-0.764,0-1.475,0.174-2.133,0.523c-0.659,0.349-1.115,1.01-1.37,1.984
		h7.006C47.396,22.166,46.945,21.504,46.287,21.156z"/>
	<path d="M146.154,20.898c-1.152,0-2.034,0.324-2.648,0.971s-0.922,1.729-0.922,3.246s0.308,2.598,0.922,3.246
		c0.614,0.646,1.496,0.971,2.648,0.971c1.162,0,2.047-0.324,2.656-0.971c0.607-0.648,0.912-1.729,0.912-3.246
		s-0.305-2.598-0.912-3.246C148.201,21.222,147.316,20.898,146.154,20.898z"/>
	<path d="M63.943,27.058c-0.863,0-1.58,0.097-2.15,0.29c-0.57,0.194-0.855,0.596-0.855,1.204c0,0.498,0.193,0.854,0.581,1.071
		c0.387,0.215,0.918,0.323,1.594,0.323c0.93,0,1.729-0.136,2.399-0.407c0.669-0.271,1.131-0.512,1.386-0.722v-1.561
		c-0.255-0.044-0.675-0.089-1.262-0.133C65.049,27.08,64.485,27.058,63.943,27.058z"/>
	<path d="M207.363,20.898c-1.151,0-2.033,0.324-2.648,0.971c-0.613,0.647-0.921,1.729-0.921,3.246s0.308,2.598,0.921,3.246
		c0.615,0.646,1.497,0.971,2.648,0.971c1.162,0,2.048-0.324,2.656-0.971c0.608-0.648,0.913-1.729,0.913-3.246
		s-0.305-2.598-0.913-3.246S208.525,20.898,207.363,20.898z"/>
	<path d="M0,0v47h268.5V0H0z M32.45,32.735h-3.918v-9.928c0-0.675-0.072-1.195-0.216-1.561c-0.144-0.365-0.443-0.548-0.896-0.548
		c-0.432,0-0.803,0.136-1.112,0.407c-0.31,0.271-0.521,0.501-0.631,0.689v10.94h-3.868v-9.928c0-0.675-0.075-1.195-0.224-1.561
		s-0.451-0.548-0.905-0.548c-0.432,0-0.8,0.136-1.104,0.407c-0.305,0.271-0.512,0.501-0.623,0.689v10.94h-3.918v-15.19h3.403v2.059
		c0.11-0.199,0.268-0.44,0.473-0.722c0.205-0.282,0.459-0.548,0.764-0.797c0.304-0.249,0.672-0.459,1.104-0.631
		c0.432-0.171,0.918-0.257,1.461-0.257c0.907,0,1.604,0.227,2.092,0.681c0.487,0.454,0.824,0.963,1.013,1.527
		c0.066-0.11,0.185-0.285,0.357-0.523c0.171-0.238,0.409-0.481,0.714-0.73c0.304-0.249,0.667-0.47,1.087-0.664
		c0.42-0.193,0.924-0.291,1.511-0.291c0.675,0,1.239,0.147,1.693,0.44c0.454,0.293,0.805,0.678,1.054,1.154
		c0.249,0.476,0.426,1.021,0.531,1.635c0.105,0.614,0.158,1.248,0.158,1.901V32.735z M52.338,25.896H40.568
		c0,1.091,0.291,1.986,0.872,2.686c0.581,0.7,1.574,1.05,2.98,1.05c0.863,0,1.577-0.143,2.142-0.427
		c0.564-0.285,0.902-0.696,1.013-1.233h4.698c-0.21,0.952-0.564,1.752-1.063,2.398c-0.498,0.648-1.104,1.177-1.818,1.586
		s-1.5,0.697-2.357,0.863c-0.858,0.166-1.741,0.249-2.648,0.249c-1.185,0-2.291-0.142-3.32-0.423
		c-1.029-0.283-1.923-0.733-2.681-1.354c-0.758-0.62-1.353-1.431-1.785-2.432c-0.432-1.002-0.647-2.217-0.647-3.645
		c0-1.517,0.243-2.789,0.73-3.818c0.487-1.029,1.121-1.856,1.901-2.482c0.78-0.625,1.668-1.068,2.665-1.328
		c0.996-0.26,2.009-0.39,3.038-0.39c1.04,0,2.047,0.136,3.021,0.407c0.974,0.271,1.834,0.72,2.582,1.345
		c0.747,0.625,1.342,1.442,1.785,2.449c0.442,1.007,0.664,2.247,0.664,3.719V25.896z M73.422,32.4
		c-0.343,0.178-0.808,0.334-1.395,0.467c-0.587,0.133-1.179,0.2-1.776,0.2c-1.019,0-1.713-0.208-2.083-0.622
		c-0.371-0.416-0.556-0.933-0.556-1.553v-0.299c-0.21,0.255-0.473,0.523-0.789,0.805c-0.315,0.283-0.7,0.549-1.154,0.797
		c-0.454,0.25-0.994,0.457-1.619,0.623c-0.625,0.166-1.342,0.249-2.15,0.249c-0.753,0-1.464-0.083-2.133-0.249
		c-0.67-0.166-1.253-0.426-1.751-0.78s-0.894-0.808-1.187-1.361c-0.293-0.554-0.44-1.218-0.44-1.992c0-0.863,0.18-1.583,0.54-2.158
		c0.359-0.575,0.847-1.032,1.461-1.37c0.614-0.337,1.312-0.575,2.092-0.713c0.78-0.139,1.58-0.208,2.399-0.208
		c0.863,0,1.652,0.05,2.366,0.149s1.264,0.21,1.652,0.332v-1.162c0-0.409-0.036-0.789-0.108-1.137
		c-0.072-0.349-0.202-0.647-0.39-0.896c-0.188-0.249-0.471-0.448-0.847-0.598c-0.376-0.149-0.869-0.224-1.478-0.224
		c-0.863,0-1.566,0.164-2.108,0.49c-0.542,0.327-0.813,0.888-0.813,1.685h-4.25c0-0.996,0.185-1.851,0.556-2.565
		c0.371-0.714,0.891-1.303,1.561-1.768c0.669-0.465,1.458-0.805,2.366-1.021c0.907-0.216,1.893-0.324,2.955-0.324
		c0.974,0,1.893,0.097,2.756,0.29c0.863,0.194,1.613,0.522,2.25,0.987c0.636,0.464,1.14,1.08,1.511,1.848
		c0.371,0.769,0.556,1.722,0.556,2.86v5.67c0,0.52,0.271,0.779,0.813,0.779c0.188,0,0.401-0.02,0.639-0.059
		c0.238-0.038,0.423-0.08,0.556-0.124V32.4z M92.083,32.735h-4.549v-8.6c0-1.085-0.164-1.878-0.49-2.382
		c-0.327-0.503-0.955-0.755-1.884-0.755c-0.62,0-1.157,0.097-1.61,0.291c-0.454,0.194-0.847,0.462-1.179,0.805v10.642h-4.565v-15.19
		h4.051v2.025c0.387-0.564,0.977-1.101,1.768-1.61c0.791-0.509,1.834-0.764,3.129-0.764c0.675,0,1.336,0.097,1.984,0.291
		c0.647,0.194,1.214,0.529,1.702,1.004c0.487,0.476,0.882,1.104,1.187,1.884c0.304,0.78,0.457,1.763,0.457,2.947V32.735z
		 M114.81,36.687H95.901v-3.951h18.909V36.687z M133.752,20.981h-7.521v4.854c0,1.227,0.177,2.109,0.531,2.651
		c0.354,0.541,1.096,0.812,2.225,0.812c0.797,0,1.541-0.097,2.233-0.291c0.691-0.193,1.297-0.39,1.818-0.589v3.569
		c-0.576,0.243-1.298,0.484-2.167,0.723c-0.869,0.237-1.884,0.356-3.046,0.356c-0.996,0-1.879-0.119-2.648-0.356
		c-0.77-0.237-1.414-0.633-1.934-1.186c-0.521-0.552-0.911-1.276-1.17-2.172c-0.26-0.895-0.39-2.012-0.39-3.349v-5.023h-4.731
		v-3.437h4.731v-7.105h4.549v7.105h7.521V20.981z M153.707,28.941c-0.498,1.035-1.148,1.857-1.95,2.466
		c-0.803,0.608-1.704,1.038-2.706,1.286c-1.002,0.25-2,0.374-2.996,0.374s-1.982-0.124-2.955-0.374
		c-0.975-0.248-1.852-0.678-2.632-1.286s-1.409-1.417-1.884-2.424c-0.477-1.007-0.715-2.274-0.715-3.802
		c0-1.561,0.25-2.85,0.748-3.868c0.498-1.018,1.147-1.834,1.95-2.449c0.802-0.614,1.702-1.046,2.698-1.295s1.997-0.374,3.004-0.374
		c0.996,0,1.986,0.125,2.973,0.374c0.984,0.249,1.861,0.675,2.631,1.278c0.77,0.604,1.392,1.409,1.867,2.416
		c0.477,1.007,0.715,2.269,0.715,3.785C154.455,26.609,154.205,27.907,153.707,28.941z M176.02,36.687h-18.908v-3.951h18.908V36.687
		z M189.899,31.474c-0.642,1.405-1.286,2.596-1.935,3.569c-0.646,0.974-1.389,1.768-2.225,2.383
		c-0.835,0.613-1.82,1.063-2.955,1.344c-1.134,0.283-2.515,0.424-4.142,0.424v-3.702c1.671,0,2.949-0.255,3.835-0.764
		s1.577-1.301,2.075-2.374l-6.807-14.809h5.213l2.573,6.275l1.544,4.466l1.527-4.466l2.573-6.275h4.997L189.899,31.474z
		 M214.917,28.941c-0.498,1.035-1.148,1.857-1.95,2.466c-0.803,0.608-1.705,1.038-2.707,1.286c-1.001,0.25-2,0.374-2.996,0.374
		s-1.981-0.124-2.955-0.374c-0.974-0.248-1.852-0.678-2.631-1.286c-0.781-0.608-1.409-1.417-1.885-2.424s-0.714-2.274-0.714-3.802
		c0-1.561,0.249-2.85,0.747-3.868c0.498-1.018,1.148-1.834,1.951-2.449c0.802-0.614,1.701-1.046,2.697-1.295
		s1.998-0.374,3.005-0.374c0.996,0,1.986,0.125,2.972,0.374s1.862,0.675,2.631,1.278c0.77,0.604,1.393,1.409,1.868,2.416
		c0.476,1.007,0.714,2.269,0.714,3.785C215.664,26.609,215.415,27.907,214.917,28.941z M234.906,32.735h-4.034v-2.042
		c-0.388,0.564-0.977,1.102-1.769,1.61c-0.791,0.509-1.834,0.764-3.129,0.764c-0.687,0-1.351-0.094-1.992-0.282
		s-1.206-0.521-1.693-0.996s-0.886-1.106-1.195-1.893s-0.465-1.766-0.465-2.938v-9.413h4.565v8.6c0,1.085,0.163,1.876,0.489,2.374
		c0.327,0.498,0.955,0.747,1.885,0.747c0.608,0,1.14-0.097,1.594-0.291c0.454-0.193,0.853-0.456,1.195-0.788V17.545h4.549V32.735z
		 M250.594,32.735h-4.964v-4.897h4.964V32.735z M255.109,20.375c-0.365,0.692-0.874,1.345-1.527,1.959s-1.461,1.214-2.424,1.801
		s-2.036,1.195-3.221,1.826l-1.561-1.992c0.952-0.62,1.727-1.173,2.324-1.66c0.598-0.487,1.057-0.927,1.378-1.32
		c0.321-0.393,0.537-0.761,0.647-1.104c0.11-0.343,0.166-0.686,0.166-1.029c0-0.52-0.097-0.943-0.291-1.27
		c-0.193-0.326-0.437-0.581-0.73-0.764c-0.293-0.183-0.603-0.301-0.93-0.357c-0.326-0.055-0.639-0.083-0.938-0.083
		c-0.388,0-0.761,0.033-1.121,0.1c-0.359,0.066-0.675,0.191-0.945,0.374c-0.271,0.183-0.493,0.443-0.664,0.78
		c-0.172,0.338-0.258,0.794-0.258,1.37h-4.482c0-2.158,0.672-3.752,2.018-4.781c1.344-1.029,3.229-1.544,5.652-1.544
		c1.118,0,2.136,0.119,3.055,0.357c0.919,0.238,1.704,0.589,2.357,1.054s1.156,1.029,1.511,1.693s0.531,1.428,0.531,2.291
		C255.657,18.917,255.475,19.684,255.109,20.375z"/>
</g>
</svg>
