<?xml version="1.0" encoding="utf-8"?>
<!-- Generator: Adobe Illustrator 16.0.0, SVG Export Plug-In . SVG Version: 6.00 Build 0)  -->
<!DOCTYPE svg PUBLIC "-//W3C//DTD SVG 1.1//EN" "http://www.w3.org/Graphics/SVG/1.1/DTD/svg11.dtd">
<svg version="1.1" id="Layer_1" xmlns="http://www.w3.org/2000/svg" xmlns:xlink="http://www.w3.org/1999/xlink" x="0px" y="0px"
	 width="231.5px" height="99px" viewBox="0 0 231.5 99" enable-background="new 0 0 231.5 99" xml:space="preserve">
<g>
	<path d="M64.541,23.298c-1.151,0-2.034,0.324-2.648,0.971s-0.921,1.729-0.921,3.246c0,1.517,0.307,2.598,0.921,3.246
		s1.497,0.971,2.648,0.971c1.162,0,2.047-0.324,2.656-0.971c0.608-0.647,0.913-1.729,0.913-3.246c0-1.516-0.305-2.598-0.913-3.246
		C66.588,23.622,65.703,23.298,64.541,23.298z"/>
	<path d="M0,0v47h194V0H0z M31.545,31.151c-0.349,0.996-0.825,1.818-1.428,2.465c-0.604,0.647-1.29,1.118-2.059,1.411
		c-0.77,0.293-1.563,0.44-2.382,0.44c-0.609,0-1.162-0.066-1.66-0.199s-0.941-0.301-1.328-0.506
		c-0.388-0.205-0.711-0.42-0.971-0.647c-0.26-0.227-0.457-0.429-0.589-0.606v7.919h-4.565V19.945h4.051v2.025
		c0.387-0.542,1.004-1.073,1.851-1.594c0.847-0.52,1.917-0.78,3.212-0.78c0.885,0,1.712,0.158,2.482,0.473
		c0.769,0.315,1.444,0.797,2.025,1.444s1.04,1.469,1.378,2.465c0.337,0.996,0.506,2.175,0.506,3.536
		C32.068,28.943,31.894,30.155,31.545,31.151z M52.604,24.942c-0.41-0.254-0.869-0.484-1.378-0.689
		c-0.509-0.205-1.124-0.307-1.843-0.307c-0.542,0-1.195,0.114-1.959,0.34c-0.764,0.227-1.539,0.761-2.324,1.602v5.811h6.226v3.437
		h-14.36v-3.437h3.569v-8.317h-3.569v-3.437h7.62v3.287c0.177-0.432,0.404-0.863,0.681-1.295c0.276-0.432,0.611-0.822,1.004-1.17
		c0.393-0.349,0.863-0.631,1.411-0.847s1.192-0.324,1.934-0.324c0.73,0,1.35,0.097,1.859,0.291c0.509,0.194,0.885,0.379,1.129,0.556
		V24.942z M72.094,31.342c-0.498,1.035-1.148,1.857-1.951,2.465c-0.803,0.609-1.705,1.038-2.706,1.287
		c-1.002,0.249-2,0.374-2.997,0.374s-1.981-0.125-2.955-0.374c-0.974-0.249-1.851-0.678-2.631-1.287
		c-0.78-0.608-1.409-1.417-1.884-2.424c-0.476-1.007-0.714-2.274-0.714-3.802c0-1.561,0.249-2.85,0.747-3.868
		c0.498-1.018,1.148-1.834,1.951-2.449c0.802-0.614,1.702-1.046,2.698-1.295s1.998-0.374,3.005-0.374
		c0.996,0,1.986,0.125,2.972,0.374c0.985,0.249,1.862,0.675,2.631,1.278c0.769,0.604,1.392,1.409,1.868,2.416
		c0.476,1.007,0.714,2.269,0.714,3.785C72.841,29.009,72.592,30.307,72.094,31.342z M89.31,32.894c0,1.716-0.274,3.135-0.822,4.258
		c-0.548,1.123-1.298,2.014-2.25,2.673c-0.952,0.658-2.073,1.118-3.362,1.378c-1.29,0.26-2.692,0.39-4.208,0.39V38.19
		c1.018,0,1.912-0.088,2.681-0.265c0.769-0.177,1.403-0.487,1.901-0.929c0.498-0.442,0.872-1.031,1.121-1.766
		c0.249-0.735,0.374-1.65,0.374-2.745v-9.104h-5.844v-3.437H89.31V32.894z M89.708,17.521h-5.362v-4.682h5.362V17.521z
		 M113.548,28.295h-11.771c0,1.091,0.291,1.986,0.872,2.686s1.574,1.049,2.98,1.049c0.863,0,1.577-0.143,2.142-0.427
		s0.902-0.696,1.013-1.233h4.698c-0.21,0.952-0.564,1.751-1.063,2.399s-1.104,1.176-1.818,1.585c-0.714,0.41-1.5,0.697-2.357,0.863
		c-0.858,0.166-1.741,0.249-2.648,0.249c-1.185,0-2.291-0.141-3.32-0.423s-1.923-0.733-2.681-1.353
		c-0.758-0.62-1.353-1.43-1.785-2.432c-0.432-1.001-0.647-2.216-0.647-3.644c0-1.516,0.243-2.789,0.73-3.818
		c0.487-1.029,1.121-1.856,1.901-2.482c0.78-0.625,1.668-1.068,2.665-1.328c0.996-0.26,2.009-0.39,3.038-0.39
		c1.04,0,2.047,0.136,3.021,0.407c0.974,0.271,1.834,0.72,2.582,1.345c0.747,0.625,1.342,1.442,1.785,2.449
		c0.442,1.007,0.664,2.247,0.664,3.719V28.295z M123.136,30.761c0.636,0.647,1.558,0.971,2.765,0.971
		c0.951,0,1.727-0.205,2.324-0.614c0.598-0.409,0.939-1.156,1.029-2.241h4.631c-0.066,1.251-0.348,2.299-0.846,3.146
		s-1.129,1.527-1.893,2.042s-1.617,0.877-2.557,1.087c-0.941,0.21-1.888,0.315-2.84,0.315c-1.018,0-2.02-0.125-3.004-0.374
		c-0.986-0.249-1.868-0.678-2.648-1.287c-0.78-0.608-1.414-1.422-1.9-2.44c-0.488-1.018-0.73-2.302-0.73-3.852
		c0-1.538,0.242-2.816,0.73-3.835c0.486-1.018,1.12-1.829,1.9-2.432c0.78-0.603,1.674-1.029,2.682-1.278
		c1.006-0.249,2.02-0.374,3.037-0.374c0.985,0,1.939,0.108,2.864,0.324c0.924,0.216,1.763,0.579,2.515,1.087
		c0.753,0.509,1.373,1.185,1.859,2.025c0.487,0.841,0.764,1.893,0.83,3.154h-4.631c-0.09-1.084-0.438-1.837-1.047-2.258
		c-0.608-0.42-1.389-0.631-2.34-0.631c-1.186,0-2.096,0.324-2.731,0.971c-0.637,0.647-0.954,1.729-0.954,3.246
		C122.182,29.032,122.499,30.113,123.136,30.761z M154.156,23.381h-7.521v4.854c0,1.226,0.178,2.11,0.531,2.651
		c0.354,0.542,1.096,0.812,2.225,0.812c0.797,0,1.541-0.097,2.233-0.291c0.691-0.193,1.298-0.39,1.817-0.589v3.569
		c-0.575,0.244-1.297,0.484-2.166,0.722s-1.885,0.357-3.047,0.357c-0.996,0-1.879-0.119-2.647-0.356
		c-0.77-0.238-1.414-0.633-1.935-1.185c-0.52-0.553-0.91-1.276-1.17-2.172s-0.391-2.012-0.391-3.349v-5.023h-4.73v-3.437h4.73
		v-7.105h4.549v7.105h7.521V23.381z M176.02,39.086h-18.908v-3.951h18.908V39.086z"/>
	<path d="M24.149,23.398c-0.708,0-1.317,0.119-1.826,0.357c-0.509,0.238-0.908,0.496-1.195,0.772v6.06
		c0.288,0.266,0.686,0.518,1.195,0.755c0.509,0.238,1.118,0.357,1.826,0.357c1.151,0,1.97-0.368,2.457-1.104
		c0.487-0.736,0.73-1.751,0.73-3.046c0-1.284-0.244-2.296-0.73-3.038C26.119,23.769,25.3,23.398,24.149,23.398z"/>
	<path d="M107.497,23.556c-0.659-0.349-1.375-0.523-2.15-0.523c-0.764,0-1.475,0.174-2.133,0.523
		c-0.659,0.349-1.115,1.01-1.37,1.984h7.006C108.606,24.566,108.155,23.904,107.497,23.556z"/>
</g>
<g>
	<path d="M107.497,72.355c-0.659-0.349-1.375-0.523-2.15-0.523c-0.764,0-1.475,0.175-2.133,0.523
		c-0.659,0.349-1.115,1.01-1.37,1.984h7.006C108.606,73.365,108.155,72.704,107.497,72.355z"/>
	<path d="M44.137,72.098c-1.151,0-2.034,0.324-2.648,0.972s-0.921,1.729-0.921,3.245c0,1.518,0.307,2.599,0.921,3.246
		s1.497,0.971,2.648,0.971c1.162,0,2.047-0.323,2.656-0.971c0.608-0.647,0.913-1.729,0.913-3.246c0-1.516-0.305-2.598-0.913-3.245
		C46.185,72.422,45.299,72.098,44.137,72.098z"/>
	<path d="M146.154,72.098c-1.152,0-2.034,0.324-2.648,0.972s-0.922,1.729-0.922,3.245c0,1.518,0.308,2.599,0.922,3.246
		s1.496,0.971,2.648,0.971c1.162,0,2.047-0.323,2.656-0.971c0.607-0.647,0.912-1.729,0.912-3.246c0-1.516-0.305-2.598-0.912-3.245
		C148.201,72.422,147.316,72.098,146.154,72.098z"/>
	<path d="M209.514,72.355c-0.659-0.349-1.376-0.523-2.15-0.523c-0.764,0-1.475,0.175-2.133,0.523
		c-0.659,0.349-1.115,1.01-1.37,1.984h7.006C210.623,73.365,210.172,72.704,209.514,72.355z"/>
	<path d="M0,52v47h231.5V52H0z M30.873,83.936h-4.549v-8.6c0-1.085-0.164-1.879-0.49-2.383c-0.327-0.504-0.955-0.756-1.884-0.756
		c-0.753,0-1.361,0.133-1.826,0.398s-0.786,0.498-0.963,0.697v10.643h-4.565V61.639h4.565v8.766
		c0.155-0.209,0.351-0.426,0.589-0.646c0.238-0.222,0.54-0.435,0.905-0.64c0.365-0.204,0.791-0.376,1.278-0.515
		c0.487-0.139,1.057-0.207,1.71-0.207c0.708,0,1.378,0.097,2.009,0.29c0.631,0.194,1.184,0.528,1.66,1.005
		c0.476,0.476,0.855,1.104,1.137,1.884s0.423,1.763,0.423,2.946V83.936z M51.691,80.142c-0.498,1.035-1.148,1.856-1.951,2.466
		c-0.803,0.608-1.705,1.037-2.706,1.286c-1.002,0.249-2,0.374-2.997,0.374s-1.981-0.125-2.955-0.374
		c-0.974-0.249-1.851-0.678-2.631-1.286c-0.78-0.609-1.409-1.417-1.884-2.424c-0.476-1.008-0.714-2.275-0.714-3.803
		c0-1.561,0.249-2.85,0.747-3.867c0.498-1.019,1.148-1.835,1.951-2.449c0.802-0.614,1.702-1.046,2.698-1.295
		s1.998-0.373,3.005-0.373c0.996,0,1.986,0.124,2.972,0.373c0.985,0.249,1.862,0.676,2.631,1.278
		c0.769,0.604,1.392,1.409,1.868,2.415c0.476,1.008,0.714,2.27,0.714,3.785C52.438,77.809,52.189,79.107,51.691,80.142z
		 M71.679,83.936h-4.034v-2.043c-0.388,0.564-0.977,1.102-1.768,1.611c-0.792,0.508-1.834,0.764-3.129,0.764
		c-0.687,0-1.351-0.095-1.992-0.283c-0.642-0.188-1.207-0.52-1.693-0.996c-0.487-0.475-0.886-1.105-1.195-1.893
		c-0.31-0.785-0.465-1.765-0.465-2.938v-9.414h4.565v8.6c0,1.086,0.163,1.877,0.49,2.375c0.326,0.498,0.955,0.746,1.884,0.746
		c0.608,0,1.14-0.096,1.594-0.29c0.454-0.193,0.852-0.456,1.195-0.788V68.744h4.549V83.936z M92.464,81.652
		c-0.454,0.637-1.06,1.154-1.818,1.553c-0.758,0.398-1.646,0.675-2.665,0.83c-1.019,0.154-2.098,0.232-3.237,0.232
		c-1.085,0-2.108-0.084-3.071-0.25s-1.801-0.447-2.515-0.846s-1.287-0.922-1.718-1.569s-0.659-1.458-0.681-2.433h4.648
		c0.077,0.73,0.454,1.227,1.129,1.486c0.675,0.26,1.527,0.391,2.557,0.391c0.874,0,1.646-0.098,2.316-0.291
		c0.669-0.193,1.004-0.562,1.004-1.104c0-0.321-0.13-0.57-0.39-0.748c-0.26-0.176-0.623-0.328-1.087-0.456
		c-0.465-0.127-1.013-0.235-1.644-0.323c-0.631-0.089-1.323-0.193-2.075-0.316c-0.73-0.109-1.464-0.257-2.2-0.439
		c-0.736-0.183-1.397-0.442-1.984-0.78c-0.587-0.337-1.063-0.772-1.428-1.304s-0.548-1.229-0.548-2.092
		c0-0.84,0.193-1.561,0.581-2.158c0.387-0.598,0.921-1.096,1.602-1.494s1.497-0.688,2.449-0.871
		c0.952-0.183,1.992-0.273,3.121-0.273c0.996,0,1.931,0.074,2.806,0.224c0.874,0.149,1.646,0.409,2.316,0.78
		c0.669,0.371,1.209,0.869,1.619,1.494c0.409,0.625,0.647,1.402,0.714,2.332H87.6c-0.111-0.664-0.484-1.096-1.121-1.295
		c-0.637-0.199-1.326-0.299-2.067-0.299c-0.797,0-1.439,0.09-1.926,0.266c-0.487,0.178-0.73,0.493-0.73,0.947
		c0,0.553,0.423,0.924,1.27,1.111c0.847,0.189,2.167,0.398,3.959,0.631c0.752,0.111,1.497,0.252,2.233,0.424
		c0.736,0.172,1.392,0.426,1.967,0.764c0.575,0.338,1.046,0.791,1.411,1.361s0.548,1.281,0.548,2.133
		C93.145,80.223,92.918,81.016,92.464,81.652z M113.548,77.096h-11.771c0,1.09,0.291,1.986,0.872,2.686s1.574,1.049,2.98,1.049
		c0.863,0,1.577-0.143,2.142-0.427s0.902-0.696,1.013-1.233h4.698c-0.21,0.953-0.564,1.752-1.063,2.399s-1.104,1.177-1.818,1.585
		c-0.714,0.41-1.5,0.697-2.357,0.863c-0.858,0.166-1.741,0.25-2.648,0.25c-1.185,0-2.291-0.142-3.32-0.424s-1.923-0.732-2.681-1.354
		c-0.758-0.619-1.353-1.43-1.785-2.432s-0.647-2.217-0.647-3.645c0-1.516,0.243-2.789,0.73-3.818
		c0.487-1.029,1.121-1.855,1.901-2.481c0.78-0.625,1.668-1.067,2.665-1.328c0.996-0.26,2.009-0.39,3.038-0.39
		c1.04,0,2.047,0.135,3.021,0.406c0.974,0.271,1.834,0.72,2.582,1.345c0.747,0.626,1.342,1.442,1.785,2.448
		c0.442,1.008,0.664,2.248,0.664,3.719V77.096z M134.467,83.936h-3.918v-9.928c0-0.676-0.072-1.195-0.217-1.561
		c-0.144-0.365-0.442-0.549-0.896-0.549c-0.432,0-0.803,0.137-1.111,0.407c-0.311,0.271-0.521,0.501-0.631,0.688v10.941h-3.869
		v-9.928c0-0.676-0.074-1.195-0.224-1.561s-0.451-0.549-0.905-0.549c-0.432,0-0.799,0.137-1.104,0.407
		c-0.305,0.271-0.512,0.501-0.623,0.688v10.941h-3.918V68.744h3.404v2.059c0.109-0.199,0.268-0.439,0.473-0.722
		s0.459-0.548,0.764-0.797s0.672-0.459,1.104-0.631c0.432-0.171,0.919-0.257,1.461-0.257c0.908,0,1.605,0.227,2.092,0.68
		c0.487,0.455,0.824,0.963,1.014,1.527c0.066-0.109,0.185-0.284,0.356-0.522c0.171-0.237,0.409-0.481,0.714-0.73
		s0.666-0.47,1.088-0.664c0.42-0.193,0.924-0.29,1.51-0.29c0.676,0,1.24,0.146,1.693,0.439c0.454,0.293,0.806,0.678,1.055,1.154
		c0.249,0.476,0.426,1.021,0.531,1.635s0.158,1.248,0.158,1.9V83.936z M153.707,80.142c-0.498,1.035-1.148,1.856-1.95,2.466
		c-0.803,0.608-1.704,1.037-2.706,1.286s-2,0.374-2.996,0.374s-1.982-0.125-2.955-0.374c-0.975-0.249-1.852-0.678-2.632-1.286
		c-0.78-0.609-1.409-1.417-1.884-2.424c-0.477-1.008-0.715-2.275-0.715-3.803c0-1.561,0.25-2.85,0.748-3.867
		c0.498-1.019,1.147-1.835,1.95-2.449c0.802-0.614,1.702-1.046,2.698-1.295s1.997-0.373,3.004-0.373
		c0.996,0,1.986,0.124,2.973,0.373c0.984,0.249,1.861,0.676,2.631,1.278c0.77,0.604,1.392,1.409,1.867,2.415
		c0.477,1.008,0.715,2.27,0.715,3.785C154.455,77.809,154.205,79.107,153.707,80.142z M173.695,83.936h-4.033v-2.043
		c-0.388,0.564-0.978,1.102-1.769,1.611c-0.791,0.508-1.835,0.764-3.13,0.764c-0.686,0-1.35-0.095-1.992-0.283
		c-0.642-0.188-1.206-0.52-1.693-0.996c-0.486-0.475-0.885-1.105-1.195-1.893c-0.31-0.785-0.465-1.765-0.465-2.938v-9.414h4.566v8.6
		c0,1.086,0.163,1.877,0.489,2.375s0.954,0.746,1.884,0.746c0.609,0,1.141-0.096,1.594-0.29c0.454-0.193,0.853-0.456,1.195-0.788
		V68.744h4.549V83.936z M194.481,81.652c-0.454,0.637-1.06,1.154-1.817,1.553c-0.759,0.398-1.646,0.675-2.665,0.83
		c-1.019,0.154-2.098,0.232-3.237,0.232c-1.085,0-2.108-0.084-3.071-0.25s-1.802-0.447-2.515-0.846
		c-0.715-0.398-1.287-0.922-1.719-1.569s-0.658-1.458-0.681-2.433h4.648c0.077,0.73,0.454,1.227,1.129,1.486
		s1.527,0.391,2.557,0.391c0.874,0,1.646-0.098,2.315-0.291c0.67-0.193,1.005-0.562,1.005-1.104c0-0.321-0.13-0.57-0.39-0.748
		c-0.261-0.176-0.623-0.328-1.088-0.456c-0.465-0.127-1.013-0.235-1.644-0.323c-0.631-0.089-1.322-0.193-2.075-0.316
		c-0.73-0.109-1.464-0.257-2.199-0.439c-0.736-0.183-1.397-0.442-1.984-0.78c-0.587-0.337-1.063-0.772-1.428-1.304
		s-0.548-1.229-0.548-2.092c0-0.84,0.193-1.561,0.581-2.158s0.922-1.096,1.602-1.494c0.682-0.398,1.497-0.688,2.449-0.871
		s1.992-0.273,3.121-0.273c0.996,0,1.932,0.074,2.806,0.224s1.646,0.409,2.315,0.78c0.67,0.371,1.21,0.869,1.619,1.494
		s0.647,1.402,0.714,2.332h-4.665c-0.11-0.664-0.484-1.096-1.121-1.295c-0.636-0.199-1.325-0.299-2.066-0.299
		c-0.797,0-1.438,0.09-1.926,0.266c-0.487,0.178-0.73,0.493-0.73,0.947c0,0.553,0.424,0.924,1.27,1.111
		c0.848,0.189,2.167,0.398,3.96,0.631c0.753,0.111,1.497,0.252,2.233,0.424c0.735,0.172,1.392,0.426,1.967,0.764
		s1.046,0.791,1.411,1.361s0.548,1.281,0.548,2.133C195.162,80.223,194.936,81.016,194.481,81.652z M215.564,77.096h-11.771
		c0,1.09,0.29,1.986,0.872,2.686c0.58,0.699,1.574,1.049,2.979,1.049c0.863,0,1.577-0.143,2.142-0.427s0.902-0.696,1.013-1.233
		h4.698c-0.21,0.953-0.564,1.752-1.063,2.399s-1.104,1.177-1.818,1.585c-0.713,0.41-1.499,0.697-2.357,0.863
		c-0.857,0.166-1.74,0.25-2.647,0.25c-1.185,0-2.291-0.142-3.32-0.424s-1.923-0.732-2.681-1.354
		c-0.759-0.619-1.354-1.43-1.785-2.432s-0.647-2.217-0.647-3.645c0-1.516,0.243-2.789,0.73-3.818s1.12-1.855,1.901-2.481
		c0.779-0.625,1.668-1.067,2.664-1.328c0.996-0.26,2.009-0.39,3.038-0.39c1.04,0,2.048,0.135,3.021,0.406s1.835,0.72,2.581,1.345
		c0.748,0.626,1.343,1.442,1.785,2.448c0.442,1.008,0.664,2.248,0.664,3.719V77.096z"/>
</g>
</svg>
